<?xml version="1.0" encoding="utf-8"?>
<!-- Generator: Adobe Illustrator 12.0.0, SVG Export Plug-In . SVG Version: 6.00 Build 51448)  -->
<!DOCTYPE svg PUBLIC "-//W3C//DTD SVG 1.1//EN" "http://www.w3.org/Graphics/SVG/1.1/DTD/svg11.dtd" [
	<!ENTITY ns_svg "http://www.w3.org/2000/svg">
	<!ENTITY ns_xlink "http://www.w3.org/1999/xlink">
]>
<svg  version="1.1" id="Layer_1" xmlns="&ns_svg;" xmlns:xlink="&ns_xlink;" width="131.625" height="146.815"
	 viewBox="0 0 131.625 146.815" overflow="visible" enable-background="new 0 0 131.625 146.815" xml:space="preserve">
<g>
	<defs>
		<rect id="XMLID_58_" width="131.625" height="131.625"/>
	</defs>
	<clipPath id="XMLID_64_">
		<use xlink:href="#XMLID_58_" />
	</clipPath>
	<path clip-path="url(#XMLID_64_)" fill-rule="evenodd" clip-rule="evenodd" fill="#FF0000" d="M115.619,65.747
		c0,27.512-22.304,49.814-49.815,49.814c-27.513,0-49.815-22.303-49.815-49.814 M115.564,65.41h-99.51"/>
	<path clip-path="url(#XMLID_64_)" fill-rule="evenodd" clip-rule="evenodd" fill="#0000FF" d="M54.839,81.154
		c1.497-5.28,4.411-10.871,4.336-16.455c-0.068-5.137-1.798-10.398-3.387-15.256c-1.555-4.755-3.62-8.604-6.691-12.522
		c-0.311-0.396-0.602-0.814-0.882-1.248c-0.765-0.25-1.427-0.833-1.735-1.819c-1.201-3.86-4.441-6.806-7.409-9.376
		c-0.175-0.152-0.323-0.312-0.445-0.475C25,32.893,15.989,48.264,15.989,65.747c0,19.592,11.316,36.532,27.764,44.667
		c0.251-1.595,1.058-2.795,2.042-3.89c0-0.846,0.332-1.688,0.986-2.228c0.26-2.479,1.479-4.961,2.531-7.148
		c2.141-4.441,3.676-9.091,5.643-13.617c0.04-0.092,0.075-0.187,0.116-0.279C54.732,82.689,54.605,81.979,54.839,81.154"/>
	<path clip-path="url(#XMLID_64_)" fill="none" stroke="#3853A3" d="M54.839,81.154c1.497-5.28,4.411-10.871,4.336-16.455
		c-0.068-5.137-1.798-10.398-3.387-15.256c-1.555-4.755-3.62-8.604-6.691-12.522c-0.311-0.396-0.602-0.814-0.882-1.248
		c-0.765-0.25-1.427-0.833-1.735-1.819c-1.201-3.86-4.441-6.806-7.409-9.376c-0.175-0.152-0.323-0.312-0.445-0.475
		C25,32.893,15.989,48.264,15.989,65.747c0,19.592,11.316,36.532,27.764,44.667c0.251-1.595,1.058-2.795,2.042-3.89
		c0-0.846,0.332-1.688,0.986-2.228c0.26-2.479,1.479-4.961,2.531-7.148c2.141-4.441,3.676-9.091,5.643-13.617
		c0.04-0.092,0.075-0.187,0.116-0.279C54.732,82.689,54.605,81.979,54.839,81.154z"/>
	<polygon clip-path="url(#XMLID_64_)" fill-rule="evenodd" clip-rule="evenodd" fill="#FFFFFF" points="35.24,50.154 39.183,61.496 
		51.187,61.739 41.619,68.994 45.096,80.486 35.24,73.628 25.386,80.486 28.862,68.994 19.295,61.739 31.299,61.496 	"/>
</g>
<g>
	<defs>
		<rect id="XMLID_60_" width="131.625" height="131.625"/>
	</defs>
	<clipPath id="XMLID_65_">
		<use xlink:href="#XMLID_60_" />
	</clipPath>
	<circle clip-path="url(#XMLID_65_)" fill="none" stroke="#231F20" stroke-width="4" cx="65.804" cy="65.747" r="60.75"/>
	<circle clip-path="url(#XMLID_65_)" fill="none" stroke="#231F20" stroke-width="4" cx="65.804" cy="65.747" r="49.815"/>
</g>
<g>
	<defs>
		<rect id="XMLID_62_" width="131.625" height="131.625"/>
	</defs>
	<clipPath id="XMLID_66_">
		<use xlink:href="#XMLID_62_" />
	</clipPath>
	<path clip-path="url(#XMLID_66_)" fill-rule="evenodd" clip-rule="evenodd" d="M74.303,73.073
		c-3.563-23.44,8.789-36.229,17.089-49.955h-2.301c-0.226,0.263-0.455,0.53-0.683,0.797c-0.004,0.01-0.009,0.02-0.012,0.028
		c-0.108,0.221-0.271,0.397-0.462,0.534c-4.088,4.853-8.24,10.449-11.988,16.716c-4.375,7.313-9.677,15.529-8.873,25.963
		c0.97,12.587,7.7,24.218,12.488,34.836c1.938,2.9,3.176,8.193,6.574,8.545c-0.439-6.57-3.708-12.394-5.917-18.404
		C77.969,86.014,75.913,79.812,74.303,73.073"/>
	<path clip-path="url(#XMLID_66_)" fill-rule="evenodd" clip-rule="evenodd" d="M61.814,62.884
		c-1.158-13.973-14.496-29.686-21.293-38.275c-0.187-0.124-0.347-0.285-0.467-0.484c-0.594,0.144-0.602,0.873-1.246,0.966
		c0.07,2.354,2.38,3.483,3.615,5.259c2.876,4.131,5.442,9.246,7.888,14.131c2.538,5.072,4.574,10.98,4.93,17.419
		c0.514,9.304-2.422,17.55-5.259,25.634c-2.684,7.65-6.801,14.948-7.23,23.005c3.491-0.584,5.164-5.775,6.901-9.202
		c2.97-5.153,5.683-11.164,7.888-17.417C59.745,77.667,62.418,70.172,61.814,62.884"/>
	<path clip-path="url(#XMLID_66_)" fill-rule="evenodd" clip-rule="evenodd" d="M62.706,34.577
		c-0.308,2.755-2.195,5.329-5.259,4.273C55.573,35.147,59.889,32.64,62.706,34.577"/>
	<path clip-path="url(#XMLID_66_)" fill-rule="evenodd" clip-rule="evenodd" d="M71.907,35.891c0.223,5.775-6.242,2.324-5.916-1.314
		C67.873,33.111,70.956,34.432,71.907,35.891"/>
	<path clip-path="url(#XMLID_66_)" fill-rule="evenodd" clip-rule="evenodd" d="M63.034,42.465c1.53-0.106,0.575,2.273,1.314,2.957
		c0.493-0.713,0.561-1.85,0.658-2.957c1.877,0.535,2.577,4.239,1.315,5.915c-1.046-0.269-0.459-2.17-1.973-1.972
		c-1.05,0.043-1.445,0.744-1.314,1.972C60.534,47.739,62.284,43.766,63.034,42.465"/>
	<path clip-path="url(#XMLID_66_)" fill-rule="evenodd" clip-rule="evenodd" d="M77.789,21.497c-0.344,3.981-3.62,6.909-8.512,7.166
		c-5.91,0.309-14.924,0.35-17.089-3.616c-0.309-0.303-1.26-1.527-1.311-3.3c-0.274,0.018-0.089,0.33-0.126,1.086
		c0.873,3.885,3.064,5.194,5.709,6.158c-2.409,1.166-6.138-1.796-5.888-7.192c-0.232,0.01,0.229,0.024-0.003,0.03
		c-1.331,7.97,3.282,9.249,5.891,11.763c-1.997,2.393-0.681,6.898,1.644,7.888c-0.577,1.968,1.711,3.71,2.3,5.587v2.958
		c1.085,1.215,1.917,2.683,3.943,2.958c1.854-0.339,2.743-1.641,3.944-2.629c-0.941-3.708,2.831-5.998,2.301-9.202
		c1.597-0.266,1.905-1.821,2.629-2.958c0.211-2.293-0.309-3.855-0.986-5.258c3.673-1.448,8.474-6.406,5.813-11.429
		C77.962,21.502,77.876,21.5,77.789,21.497 M61.719,50.681c-0.446-0.102-0.272-0.823-0.329-1.314
		C62.346,49.651,61.759,49.858,61.719,50.681 M62.706,51.667c-0.713,0.055-0.15-1.166-0.329-1.644
		C63.755,49.902,62.611,51.094,62.706,51.667 M64.02,52.323c-1.188,0.313-0.458-1.294-0.658-1.971
		C64.202,50.389,64.016,51.453,64.02,52.323 M64.677,52.323c-0.043-0.81-0.049-1.583,0.329-1.971
		C65.608,50.878,65.952,52.291,64.677,52.323 M69.936,29.647c-0.728,0.331,0.809,1.131,0.328,2.3h-1.643
		c3.92,0.245,6.188,6.858,1.643,8.216c-1.407,0.204-1.341-1.07-2.629-0.986c0.352,1.492,3.179,1.954,1.972,3.944
		c-2.316-0.423-2.963-2.514-3.615-4.601c-0.633,3.838,4.956,10.187-1.314,11.502c-1.572-0.181-2.425-1.081-3.615-1.643
		c-0.708-4.543,2.016-5.653,1.972-9.531c-1.288,1.451-1.126,4.352-3.944,4.273c-0.404-2.266,1.425-2.301,1.972-3.615
		c-4.918,3.631-7.299-7.33-0.985-7.23c-0.085-0.683-1.445-0.09-1.643-0.657c0.334-0.432,0.323-1.211,0.657-1.644
		c-1.019-0.567-1.563,2.151-2.958,2.301c0.059-1.475,0.685-2.384,1.314-3.286h14.132c0.368,1.056,0.899,1.949,0.986,3.286
		C70.865,32.224,71.316,30.02,69.936,29.647 M72.564,29.647c1.704-2.461,5.254-3.073,5.587-6.902
		C78.625,26.07,75.851,28.988,72.564,29.647"/>
	<path clip-path="url(#XMLID_66_)" fill-rule="evenodd" clip-rule="evenodd" d="M67.072,51.054
		C67.454,52.352,67.454,49.755,67.072,51.054"/>
	<path clip-path="url(#XMLID_66_)" fill-rule="evenodd" clip-rule="evenodd" d="M66.416,51.382
		C66.361,53.92,67.191,50.324,66.416,51.382"/>
	<path clip-path="url(#XMLID_66_)" fill-rule="evenodd" clip-rule="evenodd" d="M65.429,51.71
		C65.281,54.711,66.281,50.913,65.429,51.71"/>
</g>
</svg>

